<svg xmlns="http://www.w3.org/2000/svg" width="40" height="40" class="text-logo-blue w-10 h-auto"><path fill="currentColor" d="M28.21.002c-.5.01-1.006.053-1.517.125-2.411.34-4.533 1.358-6.196 3.201-1.567 1.746-2.363 3.832-2.508 6.184-.097 1.69.111 3.29.714 4.776-3.107-.003-6.214-.02-9.32.002-.531 0-.652-.17-.652-.679V1.361c0-.485-.233-.728-.7-.728-1.687 0-3.398.049-5.11 0-.579-.024-.7.17-.7.704v9.216h.024v9.216c0 .727.025.727.724.727h3.989a9.196 9.196 0 0 0-3.57 2.748C1.556 25.572 1 28.288 1.338 31.2c.652 5.36 5.088 9.095 10.41 8.78 2.315-.146 4.437-.801 6.197-2.402a9.85 9.85 0 0 0 1.599-1.907 8.755 8.755 0 0 0 1.54 1.7c2.629 2.255 5.667 3.007 9.042 2.425 8.294-1.407 10.37-10.31 6.847-15.79v.024C35.597 21.887 33.73 20.632 31.55 20c2.045-.59 3.803-1.676 5.142-3.459 1.832-2.474 2.387-5.263 1.856-8.27l.024.025c-.482-2.79-1.857-5.02-4.243-6.572a10.692 10.692 0 0 0-6.126-1.726zm-.128 5.938a4.604 4.604 0 0 1 1.698.372c1.519.606 2.266 1.867 2.483 3.468.024.242.024.46.048.703 0 2.158-1.157 3.832-2.99 4.341h.024c-2.748.752-5.256-1.14-5.377-4.026-.048-1.504.314-2.838 1.471-3.856.814-.697 1.712-1.016 2.642-1.002zm-7.85 10.89a9.558 9.558 0 0 0 4.757 3.142c-2.087.605-3.866 1.751-5.224 3.604-.064.089-.123.179-.184.268-.898-1.469-2.088-2.625-3.626-3.38 1.186-.005 2.372-.01 3.554-.01.7 0 .723-.025.723-.728zm-8.644 7.981c1.546-.024 2.653.786 3.422 2.15.169.291.29.242.506.121 1.06-.56 2.131-1.122 3.197-1.682a10.016 10.016 0 0 0-.73 2.46h-6.469c-.313 0-.434.096-.434.435v4.341c0 .364.12.461.482.461h3.423c.002.16-.08.25-.168.315-1.35 1.334-3.64 1.65-5.304.728C7.415 33 6.5 30.235 7.415 27.81c.675-1.77 1.93-2.813 3.857-2.983.107-.009.212-.015.316-.016zm16.42.645c2.274-.038 4.233 1.809 4.177 4.5 0 1.989-.964 3.565-2.556 4.22-2.772 1.116-5.666-.8-5.786-3.856-.072-1.867.482-3.492 2.218-4.365a4.46 4.46 0 0 1 1.947-.499z"/></svg>